# xmcd
#
# Track frame offsets: 
#        150
#        12515
#        25862
#        39815
#        52942
#        63227
#        76447
#        86310
#        99747
#        114592
#        125800
#        137087
#        148987
#        159345
#        171245
#        182447
#        195950
#        208867
#        220017
#        231397
#
# Disc length: 3238 seconds
#
# Revision: 1
# Processed by: cddbd v1.5.1PL0 Copyright (c) Steve Scherf et al.
# Submitted via: ExactAudioCopy v0.95b2
#
DISCID=110ca414
DTITLE=Various Artist - Country Love - CD1
DYEAR=1998
DGENRE=Country
TTITLE0=Don't Make My Brown Eyes Blue - Crystal Gayle
TTITLE1=The Most Beautiful Girl - Charlie Rich
TTITLE2=A Good Year For The Roses - Geroge Jones
TTITLE3=Rose Garden - Lynn Anderson
TTITLE4=Anytime - Slim Whitman
TTITLE5=I Fall To Pieces - Wanda Jackson
TTITLE6=Please Help Me, I'm Falling - Hank Locklin
TTITLE7=I'm So Lonesome I Could Cry - Johnny Tillotson
TTITLE8=Crazy - Billie Jo Spears
TTITLE9=It's Only Make Belive - Conway Twitty
TTITLE10=Heaven's Just A Sin Away - The Kendalls
TTITLE11=Little Green Apples - Roger Miller
TTITLE12=Lonesome Number One - Don Gibson
TTITLE13=The Last Thing On My Mind - Anne Murray
TTITLE14=Am I Losing You? (Live) - Jim Reeves
TTITLE15=Did I Ever Love You - Timi Yuro, Willie Nelson
TTITLE16=Release Me - Slim Whitman
TTITLE17=My Last Date With You - Skeeter Davis
TTITLE18=Ribbon On Darkness - The Jordanaires
TTITLE19=Walkin' After Midnight - Patsy Cline
EXTD=
EXTT0=
EXTT1=
EXTT2=
EXTT3=
EXTT4=
EXTT5=
EXTT6=
EXTT7=
EXTT8=
EXTT9=
EXTT10=
EXTT11=
EXTT12=
EXTT13=
EXTT14=
EXTT15=
EXTT16=
EXTT17=
EXTT18=
EXTT19=
PLAYORDER=
